<?xml version="1.0" encoding="utf-8"?>
<svg xmlns="http://www.w3.org/2000/svg" width="296" height="296" class="segno"><defs><clipPath id="qr-round"><rect width="296" height="296" rx="32" ry="32"/></clipPath></defs><g clip-path="url(#qr-round)"><g transform="scale(8)"><path fill="#fff" d="M0 0h37v37h-37z"/><path class="qrline" stroke="#43012a" d="M4 4.5h7m4 0h4m3 0h1m3 0h7m-29 1h1m5 0h1m1 0h1m2 0h1m2 0h1m2 0h1m2 0h1m1 0h1m5 0h1m-29 1h1m1 0h3m1 0h1m1 0h3m1 0h1m1 0h1m4 0h1m2 0h1m1 0h3m1 0h1m-29 1h1m1 0h3m1 0h1m1 0h6m1 0h3m2 0h1m1 0h1m1 0h3m1 0h1m-29 1h1m1 0h3m1 0h1m2 0h1m6 0h5m1 0h1m1 0h3m1 0h1m-29 1h1m5 0h1m4 0h1m2 0h1m1 0h1m5 0h1m5 0h1m-29 1h7m1 0h1m1 0h1m1 0h1m1 0h1m1 0h1m1 0h1m1 0h1m1 0h7m-21 1h1m1 0h2m3 0h2m2 0h2m-21 1h1m5 0h1m1 0h2m2 0h3m2 0h3m1 0h2m2 0h3m-27 1h1m1 0h2m3 0h1m1 0h3m1 0h2m1 0h4m2 0h2m1 0h2m-28 1h2m3 0h2m2 0h1m1 0h2m2 0h3m4 0h1m-23 1h2m1 0h1m1 0h1m2 0h3m3 0h1m1 0h1m2 0h2m2 0h1m1 0h1m-26 1h1m1 0h2m1 0h2m1 0h1m3 0h1m1 0h1m1 0h1m3 0h1m1 0h2m4 0h1m-29 1h3m1 0h2m6 0h2m1 0h1m1 0h4m1 0h1m1 0h1m2 0h2m-29 1h1m1 0h2m1 0h2m3 0h7m1 0h1m1 0h4m1 0h2m-26 1h1m2 0h2m2 0h1m3 0h1m7 0h5m1 0h1m1 0h1m-29 1h2m1 0h1m2 0h2m1 0h2m1 0h1m2 0h1m1 0h1m1 0h1m3 0h1m1 0h2m-27 1h1m2 0h1m1 0h1m2 0h3m4 0h6m1 0h3m1 0h3m-29 1h2m1 0h6m2 0h6m2 0h2m4 0h1m2 0h1m-29 1h1m2 0h1m3 0h6m5 0h1m1 0h1m1 0h3m-25 1h1m1 0h1m1 0h1m1 0h2m1 0h1m7 0h2m1 0h5m1 0h3m-21 1h1m1 0h1m2 0h3m1 0h2m1 0h1m3 0h2m-26 1h7m4 0h7m1 0h2m1 0h1m1 0h3m-27 1h1m5 0h1m2 0h2m2 0h1m1 0h1m3 0h2m3 0h1m-25 1h1m1 0h3m1 0h1m2 0h1m1 0h3m1 0h1m3 0h7m1 0h1m-28 1h1m1 0h3m1 0h1m2 0h3m3 0h5m1 0h1m1 0h1m1 0h2m1 0h1m-29 1h1m1 0h3m1 0h1m2 0h2m2 0h4m2 0h1m1 0h7m-28 1h1m5 0h1m4 0h1m2 0h2m7 0h1m1 0h2m1 0h1m-29 1h7m1 0h3m1 0h3m2 0h1m1 0h1m2 0h5"/></g></g></svg>
